<?xml version="1.0" standalone="no"?>
<!DOCTYPE svg PUBLIC "-//W3C//DTD SVG 20010904//EN"
 "http://www.w3.org/TR/2001/REC-SVG-20010904/DTD/svg10.dtd">
<svg version="1.0" xmlns="http://www.w3.org/2000/svg"
 width="512.000000pt" height="512.000000pt" viewBox="0 0 512.000000 512.000000"
 preserveAspectRatio="xMidYMid meet">
<metadata>
Created by potrace 1.11, written by Peter Selinger 2001-2013
</metadata>
<g transform="translate(0.000000,512.000000) scale(0.100000,-0.100000)"
fill="#000000" stroke="none">
<path d="M2100 5020 c-34 -34 -20 -75 34 -94 53 -19 91 66 44 98 -30 21 -54
20 -78 -4z"/>
<path d="M1702 4984 c-26 -18 -30 -65 -7 -84 40 -33 113 7 99 54 -13 44 -53
58 -92 30z"/>
<path d="M2523 4989 c-46 -17 -37 -93 12 -105 49 -12 93 42 67 83 -12 19 -55
31 -79 22z"/>
<path d="M1320 4867 c-48 -24 -32 -107 21 -107 24 0 69 43 69 65 0 18 -35 55
-52 55 -7 0 -24 -6 -38 -13z"/>
<path d="M2897 4852 c-35 -38 -8 -92 46 -92 52 0 74 53 37 90 -25 25 -62 26
-83 2z"/>
<path d="M952 4660 c-27 -25 -28 -61 -4 -83 26 -23 55 -21 80 6 27 29 28 51 2
77 -26 26 -50 25 -78 0z"/>
<path d="M640 4390 c-28 -28 -26 -66 5 -86 52 -34 115 29 81 81 -20 31 -58 33
-86 5z"/>
<path d="M1995 4129 c-166 -22 -318 -76 -460 -163 -266 -161 -439 -395 -523
-705 -23 -87 -26 -113 -26 -281 0 -169 3 -194 27 -283 55 -207 157 -386 301
-530 454 -457 1185 -458 1641 -2 293 293 406 711 299 1114 -95 361 -360 651
-721 787 -152 58 -382 85 -538 63z m314 -120 c127 -19 277 -76 394 -153 26
-17 47 -34 47 -39 0 -5 -22 -34 -49 -65 -94 -110 -191 -272 -191 -318 0 -57
67 -124 124 -124 36 0 97 -34 116 -65 23 -38 26 -95 6 -133 -8 -15 -65 -70
-126 -122 -121 -103 -150 -144 -150 -214 0 -63 14 -93 65 -140 32 -31 45 -51
50 -81 21 -136 43 -155 181 -155 138 0 193 33 253 152 15 30 56 61 72 56 16
-5 -74 -173 -136 -254 -386 -504 -1118 -553 -1564 -104 -182 182 -286 414
-298 664 l-6 119 29 -7 c19 -5 59 -39 112 -96 64 -69 98 -97 146 -120 85 -40
76 -27 126 -197 17 -58 36 -93 100 -178 44 -59 82 -116 85 -128 3 -12 14 -71
25 -132 22 -124 42 -155 104 -155 50 0 83 32 102 98 9 31 33 80 54 107 21 28
48 82 60 120 34 105 43 117 124 180 115 88 120 126 28 234 -26 31 -67 82 -91
114 -47 64 -88 94 -141 103 -19 3 -64 23 -100 44 -36 20 -76 41 -89 45 -45 14
-102 6 -153 -20 -78 -41 -104 -33 -155 45 -49 74 -52 98 -20 135 25 29 53 33
145 20 63 -8 114 12 159 64 33 39 33 39 117 42 95 4 111 14 167 98 24 36 29
55 29 102 0 54 -4 64 -56 141 -72 107 -93 128 -188 195 -90 64 -92 60 40 98
141 41 281 48 453 24z m-414 -362 c30 -45 55 -90 55 -99 0 -10 -14 -33 -31
-52 -28 -33 -34 -35 -72 -30 -64 9 -121 -11 -169 -59 l-43 -41 -101 -1 c-93 0
-103 -2 -143 -28 -57 -38 -96 -119 -87 -181 8 -52 68 -156 119 -209 33 -33 36
-38 15 -32 -12 3 -63 48 -113 100 -91 94 -123 117 -183 130 -31 6 -32 8 -26
43 11 62 53 183 92 262 72 146 220 314 354 400 l59 39 109 -80 c92 -68 118
-93 165 -162z m1040 1 c198 -242 282 -560 224 -855 -10 -50 -12 -53 -47 -58
-88 -15 -156 -63 -194 -139 -31 -63 -53 -76 -130 -76 -59 0 -68 2 -68 18 0 52
-33 126 -76 169 -68 67 -63 79 76 205 141 128 165 166 165 263 -1 52 -6 81
-22 111 -37 70 -125 134 -185 134 -51 0 -53 14 -13 81 63 104 167 239 185 239
5 0 43 -42 85 -92z m-1136 -732 c42 -24 94 -46 116 -49 29 -5 48 -16 70 -40
43 -50 126 -157 131 -172 3 -7 -24 -35 -60 -64 -70 -55 -92 -89 -124 -192 -11
-36 -38 -89 -59 -118 l-38 -51 -8 42 c-16 82 -37 124 -112 222 -74 97 -78 107
-122 261 -13 48 -46 97 -82 123 l-39 28 57 -4 c49 -4 66 0 117 26 32 17 63 31
68 32 5 0 43 -20 85 -44z"/>
<path d="M395 4066 c-30 -30 -32 -57 -7 -79 52 -48 132 20 90 75 -24 30 -56
31 -83 4z"/>
<path d="M220 3702 c-44 -36 -21 -104 36 -104 50 0 74 71 36 105 -24 22 -44
21 -72 -1z"/>
<path d="M116 3304 c-19 -18 -21 -75 -4 -92 7 -7 26 -12 43 -12 17 0 36 5 43
12 16 16 16 80 0 96 -17 17 -64 15 -82 -4z"/>
<path d="M97 2892 c-21 -23 -22 -51 -1 -80 31 -45 104 -17 104 40 0 51 -69 78
-103 40z"/>
<path d="M4535 2518 c-19 -18 -133 -143 -255 -278 -181 -202 -220 -250 -220
-274 0 -25 15 -44 82 -107 l83 -76 -60 -68 c-33 -37 -74 -83 -91 -103 l-31
-36 -162 147 c-90 81 -171 147 -181 147 -11 0 -35 -13 -53 -30 l-34 -30 -17
88 c-25 128 -34 151 -61 158 -38 10 -56 -2 -129 -86 -66 -75 -70 -78 -91 -64
-19 12 -21 21 -17 67 3 43 0 58 -20 87 -61 91 -185 91 -246 0 -19 -28 -23 -45
-20 -86 7 -87 59 -134 150 -134 42 0 59 -5 73 -20 17 -19 16 -22 -59 -105 -42
-47 -76 -95 -76 -105 0 -40 33 -57 121 -64 46 -4 96 -9 111 -12 l27 -5 -25
-39 c-16 -24 -23 -46 -20 -58 4 -11 75 -81 159 -157 84 -75 153 -140 155 -144
4 -10 -168 -201 -180 -201 -5 0 -44 32 -86 70 -116 106 -93 118 -386 -207
-200 -223 -246 -278 -246 -302 0 -24 30 -55 210 -217 115 -104 219 -190 231
-192 11 -2 30 5 41 15 40 36 475 519 487 541 18 35 7 52 -78 128 -44 38 -80
72 -80 76 -1 4 40 53 90 108 l92 100 43 -40 c49 -45 77 -50 109 -20 l22 21 50
-46 c49 -43 83 -55 109 -37 6 4 61 63 122 130 80 88 112 131 112 149 0 17 -16
40 -52 73 -50 46 -51 48 -35 71 26 37 20 59 -29 106 l-45 44 88 99 c48 54 92
99 96 99 4 1 46 -33 92 -74 87 -77 91 -80 120 -69 31 12 515 555 515 578 0 25
-36 62 -268 270 -93 83 -172 146 -183 146 -10 0 -35 -15 -54 -32z m113 -164
l53 -46 -53 -57 c-29 -31 -55 -57 -58 -59 -3 -1 -29 19 -58 44 l-52 46 52 59
c29 32 55 59 58 59 3 0 29 -21 58 -46z m197 -178 l49 -43 -42 -50 c-69 -82
-64 -82 -124 -25 l-52 49 54 57 c29 31 56 56 59 56 3 0 28 -20 56 -44z m-389
-32 l54 -46 -99 -110 c-55 -60 -102 -109 -106 -109 -3 0 -29 20 -56 45 l-51
46 99 109 c54 61 100 111 101 111 2 0 28 -21 58 -46z m-1278 -158 c5 -24 -10
-38 -31 -30 -17 6 -23 35 -10 48 12 12 38 1 41 -18z m1476 -21 l49 -44 -36
-43 c-20 -24 -65 -74 -100 -113 l-64 -69 -51 44 c-29 24 -52 47 -52 53 0 11
189 217 199 217 3 -1 28 -21 55 -45z m-1153 -198 c13 -77 13 -78 -12 -103 -25
-25 -29 -25 -113 -18 -48 4 -85 11 -84 15 2 5 43 54 93 109 59 67 91 96 96 88
4 -7 13 -48 20 -91z m273 -104 c33 -31 61 -62 61 -69 0 -6 -53 -71 -118 -143
l-119 -131 -69 62 c-38 33 -69 65 -69 69 0 12 233 269 243 269 5 0 37 -26 71
-57z m238 -216 l67 -62 -125 -138 -125 -137 -70 62 c-38 35 -69 66 -69 69 0
12 235 269 245 268 6 0 40 -28 77 -62z m122 -226 c17 -19 16 -22 -45 -88 -35
-37 -66 -69 -69 -71 -4 -1 -15 6 -24 17 -18 20 -17 22 44 91 35 38 66 70 70
70 4 0 15 -9 24 -19z m-817 -337 l53 -46 -39 -46 c-22 -26 -68 -77 -103 -114
l-63 -68 -54 49 -54 49 99 111 c54 61 101 111 103 111 2 0 28 -21 58 -46z
m194 -175 c27 -22 49 -46 49 -52 0 -7 -45 -59 -99 -117 l-98 -104 -51 43 c-29
23 -52 47 -52 52 0 9 189 219 197 219 3 0 27 -18 54 -41z m-473 -140 l51 -46
-57 -62 -57 -62 -55 49 -54 49 54 61 c30 34 58 60 61 59 3 -1 29 -23 57 -48z
m197 -179 l49 -49 -53 -55 c-28 -31 -54 -57 -56 -58 -7 -4 -105 82 -105 92 0
10 99 120 109 120 4 0 29 -22 56 -50z"/>
<path d="M167 2492 c-35 -38 -6 -112 43 -112 28 0 60 35 60 65 0 54 -69 85
-103 47z"/>
<path d="M317 2112 c-35 -38 -6 -112 43 -112 24 0 60 34 60 56 0 19 -19 56
-34 66 -20 13 -53 8 -69 -10z"/>
<path d="M553 1780 c-26 -11 -41 -56 -26 -79 5 -9 21 -22 35 -30 23 -13 29
-13 52 2 35 24 35 68 0 96 -30 23 -30 23 -61 11z"/>
<path d="M822 1478 c-21 -21 -14 -65 14 -87 33 -26 49 -26 74 -1 41 41 13 100
-46 100 -17 0 -35 -5 -42 -12z"/>
<path d="M3130 1310 c-55 -55 14 -129 78 -84 43 30 17 104 -36 104 -12 0 -31
-9 -42 -20z"/>
<path d="M1172 1254 c-48 -33 -15 -104 48 -104 35 0 50 17 50 56 0 34 -28 64
-60 64 -9 0 -26 -7 -38 -16z"/>
<path d="M2757 1132 c-34 -37 -13 -92 34 -92 48 0 69 16 69 53 0 18 -5 38 -12
45 -18 18 -73 14 -91 -6z"/>
<path d="M1570 1113 c-61 -21 -45 -113 19 -113 40 0 61 18 61 54 0 44 -39 73
-80 59z"/>
<path d="M2373 1050 c-46 -19 -37 -93 12 -106 55 -14 98 33 74 79 -20 38 -42
45 -86 27z"/>
<path d="M1943 1014 c-15 -24 -15 -29 -2 -53 12 -21 22 -26 54 -26 32 0 42 5
54 26 13 24 13 29 -2 53 -13 20 -26 26 -52 26 -26 0 -39 -6 -52 -26z"/>
</g>
</svg>
