<?xml version="1.0"?>
<svg xmlns="http://www.w3.org/2000/svg" xmlns:xlink="http://www.w3.org/1999/xlink" xmlns:svgjs="http://svgjs.com/svgjs" version="1.1" width="16" height="16" x="0" y="0" viewBox="0 0 16 16" style="enable-background:new 0 0 16 16" xml:space="preserve" class=""><g><path xmlns="http://www.w3.org/2000/svg" d="m402.217 399.696h21.256v7.638h-21.256z" transform="matrix(.67 -.742 .742 .67 -163.329 439.418)" fill="#272a35" data-original="#000000" style="" class=""/><path xmlns="http://www.w3.org/2000/svg" d="m375.257 376.5h38.893v21.257h-38.893z" transform="matrix(.67 -.742 .742 .67 -157.151 420.533)" fill="#272a35" data-original="#000000" style="" class=""/><path xmlns="http://www.w3.org/2000/svg" d="m352.063 355.548h38.893v21.257h-38.893z" transform="matrix(.67 -.742 .742 .67 -149.25 396.418)" fill="#272a35" data-original="#000000" style="" class=""/><path xmlns="http://www.w3.org/2000/svg" d="m359.08 349.163-4.019-20.098-22.14 24.509 20.402 1.962z" fill="#272a35" data-original="#000000" style="" class=""/><path xmlns="http://www.w3.org/2000/svg" d="m404.509 349.173h39.927v9.999h-39.927z" transform="matrix(.67 -.742 .742 .67 -122.885 431.727)" fill="#272a35" data-original="#000000" style="" class=""/><path xmlns="http://www.w3.org/2000/svg" d="m345.707 414.757h39.046v9.999h-39.046z" transform="matrix(.67 -.742 .742 .67 -191.08 409.386)" fill="#272a35" data-original="#000000" style="" class=""/><path xmlns="http://www.w3.org/2000/svg" d="m313.474 312.567a11.591 11.591 0 0 0 8.588 19.36c.2 0 .4 0 .6-.015a11.639 11.639 0 0 0 2.874-.523l11.065 9.994 6.7-7.421-10.433-9.424a11.587 11.587 0 0 0 -19.4-11.971z" fill="#272a35" data-original="#000000" style="" class=""/><path xmlns="http://www.w3.org/2000/svg" d="m425.806 306.976h32.083v16.456h-32.083z" transform="matrix(.67 -.742 .742 .67 -88.235 431.802)" fill="#272a35" data-original="#000000" style="" class=""/><path xmlns="http://www.w3.org/2000/svg" d="m475.891 298.533h18.464v16.456h-18.464z" transform="matrix(.67 -.742 .742 .67 -67.699 461.145)" fill="#272a35" data-original="#000000" style="" class=""/><path xmlns="http://www.w3.org/2000/svg" d="m445.438 324.709h32.083v16.456h-32.083z" transform="matrix(.67 -.742 .742 .67 -94.917 452.238)" fill="#272a35" data-original="#000000" style="" class=""/><path xmlns="http://www.w3.org/2000/svg" d="m456.26 280.8h18.464v16.456h-18.464z" transform="matrix(.67 -.742 .742 .67 -61.012 440.731)" fill="#272a35" data-original="#000000" style="" class=""/><path xmlns="http://www.w3.org/2000/svg" d="m311.887 433.092h32.083v16.456h-32.083z" transform="matrix(.67 -.742 .742 .67 -219.382 388.865)" fill="#272a35" data-original="#000000" style="" class=""/><path xmlns="http://www.w3.org/2000/svg" d="m295.052 459.268h18.464v16.456h-18.464z" transform="matrix(.67 -.742 .742 .67 -246.599 379.926)" fill="#272a35" data-original="#000000" style="" class=""/><path xmlns="http://www.w3.org/2000/svg" d="m314.683 477h18.464v16.456h-18.464z" transform="matrix(.67 -.742 .742 .67 -253.289 400.361)" fill="#272a35" data-original="#000000" style="" class=""/><path xmlns="http://www.w3.org/2000/svg" d="m331.518 450.825h32.083v16.456h-32.083z" transform="matrix(.67 -.742 .742 .67 -226.068 409.271)" fill="#272a35" data-original="#000000" style="" class=""/><path xmlns="http://www.w3.org/2000/svg" d="m140.63 42.824a5.978 5.978 0 0 0 2.387-.5l.884-.381a6 6 0 1 0 -4.72-11.033l-.944.407a6 6 0 0 0 2.393 11.505z" fill="#272a35" data-original="#000000" style="" class=""/><path xmlns="http://www.w3.org/2000/svg" d="m220.341 14.448a6.119 6.119 0 0 0 0 12.236l.965.316h.036a6.277 6.277 0 0 0 6-6.278 6.137 6.137 0 0 0 -5.965-6.192z" fill="#272a35" data-original="#000000" style="" class=""/><path xmlns="http://www.w3.org/2000/svg" d="m297.635 42.442.89.39a6 6 0 1 0 4.856-10.973l-.947-.416a6 6 0 0 0 -4.8 11z" fill="#272a35" data-original="#000000" style="" class=""/><path xmlns="http://www.w3.org/2000/svg" d="m180.849 30.361.94-.191a6 6 0 0 0 -2.347-11.77l-1.021.208a6 6 0 0 0 1.208 11.877 6.074 6.074 0 0 0 1.22-.124z" fill="#272a35" data-original="#000000" style="" class=""/><path xmlns="http://www.w3.org/2000/svg" d="m262.263 18.67a6 6 0 0 0 -2.446 11.748l.954.2a6 6 0 1 0 2.5-11.737z" fill="#272a35" data-original="#000000" style="" class=""/><path xmlns="http://www.w3.org/2000/svg" d="m246.573 412.592-.963.129a6 6 0 0 0 .774 11.949 5.862 5.862 0 0 0 .789-.052l1.019-.135a6 6 0 1 0 -1.619-11.891z" fill="#272a35" data-original="#000000" style="" class=""/><path xmlns="http://www.w3.org/2000/svg" d="m292.8 406.887a6 6 0 0 0 -7.658-3.654l-.92.324a6 6 0 1 0 3.957 11.328l.967-.34a6 6 0 0 0 3.654-7.658z" fill="#272a35" data-original="#000000" style="" class=""/><path xmlns="http://www.w3.org/2000/svg" d="m320.969 386.176-.833.5a6 6 0 1 0 6.2 10.275l.872-.528a6 6 0 1 0 -6.236-10.252z" fill="#272a35" data-original="#000000" style="" class=""/><path xmlns="http://www.w3.org/2000/svg" d="m206.894 413.922-.969-.068a6 6 0 1 0 -.863 11.969l1.025.071c.137.01.273.014.409.014a6 6 0 0 0 .4-11.986z" fill="#272a35" data-original="#000000" style="" class=""/><path xmlns="http://www.w3.org/2000/svg" d="m70.442 78.91-.707.751a6 6 0 0 0 8.762 8.2l.664-.706a6 6 0 1 0 -8.719-8.245z" fill="#272a35" data-original="#000000" style="" class=""/><path xmlns="http://www.w3.org/2000/svg" d="m167.783 407.209-.933-.264a6 6 0 1 0 -3.289 11.54l.99.28a6 6 0 0 0 3.232-11.556z" fill="#272a35" data-original="#000000" style="" class=""/><path xmlns="http://www.w3.org/2000/svg" d="m69.037 341.987a6 6 0 1 0 -9.353 7.518l.648.8a6 6 0 0 0 9.313-7.569z" fill="#272a35" data-original="#000000" style="" class=""/><path xmlns="http://www.w3.org/2000/svg" d="m97.7 370.819-.746-.611a6 6 0 0 0 -7.637 9.256l.8.657a6 6 0 0 0 7.582-9.3z" fill="#272a35" data-original="#000000" style="" class=""/><path xmlns="http://www.w3.org/2000/svg" d="m102.355 51.381-.851.6a6 6 0 1 0 6.926 9.8l.783-.549a6 6 0 1 0 -6.858-9.848z" fill="#272a35" data-original="#000000" style="" class=""/><path xmlns="http://www.w3.org/2000/svg" d="m130.874 392.632-.867-.453a6 6 0 1 0 -5.576 10.626l.91.475a6 6 0 1 0 5.533-10.648z" fill="#272a35" data-original="#000000" style="" class=""/><path xmlns="http://www.w3.org/2000/svg" d="m53.017 110.377a6 6 0 0 0 -8.256 1.96l-.538.878a6 6 0 1 0 10.246 6.246l.509-.829a6 6 0 0 0 -1.961-8.255z" fill="#272a35" data-original="#000000" style="" class=""/><path xmlns="http://www.w3.org/2000/svg" d="m26.632 233.519-.063-.963a6 6 0 1 0 -11.976.739l.066 1.032a6 6 0 0 0 5.981 5.6c.135 0 .272 0 .41-.015a6 6 0 0 0 5.582-6.393z" fill="#272a35" data-original="#000000" style="" class=""/><path xmlns="http://www.w3.org/2000/svg" d="m33.057 271.707a6 6 0 0 0 -11.577 3.162l.278 1a6 6 0 1 0 11.554-3.236z" fill="#272a35" data-original="#000000" style="" class=""/><path xmlns="http://www.w3.org/2000/svg" d="m47.418 308.7a6 6 0 0 0 -10.68 5.473l.474.917a6 6 0 1 0 10.646-5.535z" fill="#272a35" data-original="#000000" style="" class=""/><path xmlns="http://www.w3.org/2000/svg" d="m16.1 192.222a6 6 0 0 0 5.137 6.753 5.932 5.932 0 0 0 .816.056 6 6 0 0 0 5.937-5.193l.133-.953a6 6 0 1 0 -11.881-1.69z" fill="#272a35" data-original="#000000" style="" class=""/><path xmlns="http://www.w3.org/2000/svg" d="m37.71 154.361a6 6 0 1 0 -11.291-4.061l-.346.963a6 6 0 1 0 11.305 4.025z" fill="#272a35" data-original="#000000" style="" class=""/><path xmlns="http://www.w3.org/2000/svg" d="m286.452 219.192-19.708 17.117a4.391 4.391 0 0 0 -1.744 2.919v4.543c0 .52.678 1.035 1.115 1.317a23.832 23.832 0 0 1 10.949 17.462l.513 4.816c.015.15.177.634.327.634h11.344a9.96 9.96 0 0 0 8.777-6.123l.682-1.858a23.491 23.491 0 0 1 20.533-14.128l2.666-.142c.061 0 .125-.02.188-.025a104.933 104.933 0 0 0 -31.2-102.91l-1.155 1.611a5.077 5.077 0 0 1 -.384.47 134.493 134.493 0 0 0 -17.012 23.029l-4.06 6.938a.442.442 0 0 0 .1.386 4.552 4.552 0 0 0 2.875 1.527l1.943.24a24.439 24.439 0 0 1 20.399 17.175 24.134 24.134 0 0 1 -7.148 25.002z" fill="#272a35" data-original="#000000" style="" class=""/><path xmlns="http://www.w3.org/2000/svg" d="m159.6 182.266 8.981 1.141a3.085 3.085 0 0 0 3.073-1.4 19.181 19.181 0 0 1 19.026-9.393l3.929.5a2.982 2.982 0 0 0 2.723-1.132l3.459-4.49a6.707 6.707 0 0 0 .2-7.947l-7.463-10.762a29.72 29.72 0 0 0 -9.348-8.656 39.513 39.513 0 0 1 -3.77-2.507l-11.651-8.761a105.252 105.252 0 0 0 -52.382 75.762 22.458 22.458 0 0 1 19.833 11.141 12.709 12.709 0 0 0 2.27 2.852l7.819 7.36a6.759 6.759 0 0 0 2.838 1.59l.914.249a20.932 20.932 0 0 1 14.6 14.542l4.194 15.124a9.718 9.718 0 0 0 1.65 3.324l12.7 16.656a21.109 21.109 0 0 1 4.026 9.3l2.214 13.276a26.5 26.5 0 0 1 4.935-8.973l3.681-4.427a2.723 2.723 0 0 0 .507-.936l3.781-12.269a23.168 23.168 0 0 1 8.073-11.612l10.39-7.978-6.7-7.888c-.535-.628-1.05-1.288-1.532-1.96l-5.723-7.978a11.542 11.542 0 0 0 -9.476-5.118 7.815 7.815 0 0 1 -4.256-1.119l-11.7-7.021a6.361 6.361 0 0 0 -6.25-.152l-6.166 3.3a17.18 17.18 0 0 1 -22.544-5.929l-5.988-9.457a18.016 18.016 0 0 1 .3-19.752 19.626 19.626 0 0 1 18.833-8.5z" fill="#272a35" data-original="#000000" style="" class=""/><path xmlns="http://www.w3.org/2000/svg" d="m319 255.948a13.56 13.56 0 0 0 -11.14 8.114l-.681 1.834a19.953 19.953 0 0 1 -17.931 12.104h-11.348a10.63 10.63 0 0 1 -10.265-9.639l-.5-4.84a13.9 13.9 0 0 0 -6.446-10.042 11.951 11.951 0 0 1 -5.689-9.708v-4.543a14.338 14.338 0 0 1 5.123-10.413l19.684-17.115a14.114 14.114 0 0 0 4.206-14.607 14.424 14.424 0 0 0 -12.034-10.151l-1.941-.24a14.537 14.537 0 0 1 -9.177-4.867 10.38 10.38 0 0 1 -1.232-11.974l4.088-6.985a144.512 144.512 0 0 1 18.072-24.52l1.392-1.941a104.839 104.839 0 0 0 -104.4-12.524l7.631 5.738a29.844 29.844 0 0 0 2.816 1.873 39.773 39.773 0 0 1 12.515 11.588l7.462 10.762a16.671 16.671 0 0 1 -.5 19.75l-3.46 4.49a13.029 13.029 0 0 1 -11.907 4.946l-3.93-.5a9.184 9.184 0 0 0 -9.116 4.5 13.025 13.025 0 0 1 -12.978 6.292l-8.984-1.141a9.69 9.69 0 0 0 -9.287 4.2 8.023 8.023 0 0 0 -.137 8.793l5.99 9.457a7.143 7.143 0 0 0 9.373 2.465l6.166-3.3a16.412 16.412 0 0 1 16.117.391l11.188 6.714a21.572 21.572 0 0 1 17.226 9.291l5.725 7.981c.323.449.666.888 1.023 1.307l7.491 8.815a8.844 8.844 0 0 1 1.994 7.134 8.97 8.97 0 0 1 -3.447 5.688l-11.252 8.64a13.217 13.217 0 0 0 -4.606 6.626l-3.782 12.269a12.661 12.661 0 0 1 -2.372 4.381l-3.682 4.429a15.963 15.963 0 0 0 -3.725 8.749 10.826 10.826 0 0 1 -6.607 9.019 7.951 7.951 0 0 1 -8.02-1.111 8.014 8.014 0 0 1 -2.9-4.994l-3.454-20.715a11.082 11.082 0 0 0 -2.113-4.884l-12.7-16.655a19.709 19.709 0 0 1 -3.337-6.719l-4.192-15.123a10.889 10.889 0 0 0 -7.6-7.565l-.914-.25a16.785 16.785 0 0 1 -7.059-3.955l-7.82-7.36a22.691 22.691 0 0 1 -4.051-5.094 12.44 12.44 0 0 0 -12.223-6.1q-.151 2.817-.155 5.669a105.013 105.013 0 0 0 203.812 35.566z" fill="#272a35" data-original="#000000" style="" class=""/></g></svg>
